# xmcd
#
# Track frame offsets: 
#        150
#        12992
#        26500
#        37212
#        47500
#        57932
#        68050
#        80650
#        94462
#        106925
#        116180
#        127530
#        140830
#        151430
#        162975
#        176737
#        187662
#        196657
#        207730
#        217787
#        230287
#
# Disc length: 3236 seconds
#
# Revision: 0
# Processed by: cddbd v1.5.2PL0 Copyright (c) Steve Scherf et al.
# Submitted via: ExactAudioCopyFreeDBPlugin 1.0
#
DISCID=220ca215
DTITLE=Various Artist - SWAMP BLUES Guitarists! [Disk 1]
DYEAR=1900
DGENRE=Blues
TTITLE0=LEROY WASHINGTON - My True Life
TTITLE1=LEROY WASHINGTON - Hello Stranger (take 2)
TTITLE2=LEROY WASHINGTON - Wild Cherry
TTITLE3=LEROY WASHINGTON - Be Kind
TTITLE4=LEROY WASHINGTON - Gimmie Rights (When I'm Not Wrong)
TTITLE5=LEROY WASHINGTON - My China Town Gal
TTITLE6=LEROY WASHINGTON - Bow Legged, Knock Kneed And Big Eyes
TTITLE7=LEROY WASHINGTON - Hello Stranger (take 1)
TTITLE8=LEROY WASHINGTON - Why Should I Cry
TTITLE9=TABBY THOMAS - Roll On Ole Mule
TTITLE10=TABBY THOMAS - I Say I
TTITLE11=TABBY THOMAS - Popeye Train
TTITLE12=TABBY THOMAS - Leave It Like It Is
TTITLE13=TABBY THOMAS - Hoodoo Party
TTITLE14=TABBY THOMAS - Keep On Trying
TTITLE15=TABBY THOMAS - You Put A Hole In My Hands
TTITLE16=TABBY THOMAS - He's Got The Whole World In His Hands
TTITLE17=TABBY THOMAS - Mr. Buzzard
TTITLE18=TABBY THOMAS - Play Girl
TTITLE19=BLUE CHARLIE - Don't Bring Me No Friend
TTITLE20=BLUE CHARLIE - I'm Gonna Kill That Hen
EXTD=
EXTT0=
EXTT1=
EXTT2=
EXTT3=
EXTT4=
EXTT5=
EXTT6=
EXTT7=
EXTT8=
EXTT9=
EXTT10=
EXTT11=
EXTT12=
EXTT13=
EXTT14=
EXTT15=
EXTT16=
EXTT17=
EXTT18=
EXTT19=
EXTT20=
PLAYORDER=
